<svg width="20" height="20" viewBox="0 0 20 20" fill="none" xmlns="http://www.w3.org/2000/svg">
<path d="M17.9548 6.61558C17.7204 6.38124 17.4025 6.2496 17.0711 6.2496C16.7396 6.2496 16.4217 6.38124 16.1873 6.61558L9.99982 12.8031L3.81232 6.61558C3.57657 6.38788 3.26081 6.26189 2.93307 6.26474C2.60532 6.26758 2.2918 6.39904 2.06004 6.6308C1.82828 6.86256 1.69682 7.17608 1.69398 7.50383C1.69113 7.83157 1.81712 8.14733 2.04482 8.38308L9.11607 15.4543C9.35048 15.6887 9.66836 15.8203 9.99982 15.8203C10.3313 15.8203 10.6492 15.6887 10.8836 15.4543L17.9548 8.38308C18.1892 8.14867 18.3208 7.83078 18.3208 7.49933C18.3208 7.16787 18.1892 6.84999 17.9548 6.61558Z" fill="#000066"/>
</svg>
