<svg width="20" height="20" viewBox="0 0 20 20" fill="none" xmlns="http://www.w3.org/2000/svg">
<path d="M2.04506 13.3844C2.27947 13.6188 2.59735 13.7504 2.92881 13.7504C3.26027 13.7504 3.57815 13.6188 3.81256 13.3844L10.0001 7.19692L16.1876 13.3844C16.4233 13.6121 16.7391 13.7381 17.0668 13.7353C17.3946 13.7324 17.7081 13.601 17.9398 13.3692C18.1716 13.1374 18.3031 12.8239 18.3059 12.4962C18.3088 12.1684 18.1828 11.8527 17.9551 11.6169L10.8838 4.54567C10.6494 4.31133 10.3315 4.17969 10.0001 4.17969C9.6686 4.17969 9.35072 4.31133 9.11631 4.54567L2.04506 11.6169C1.81072 11.8513 1.67908 12.1692 1.67908 12.5007C1.67908 12.8321 1.81072 13.15 2.04506 13.3844Z" fill="#000066"/>
</svg>
