<svg width="20" height="20" viewBox="0 0 20 20" fill="none" xmlns="http://www.w3.org/2000/svg">
<path d="M2.04518 6.61558C2.27959 6.38124 2.59748 6.2496 2.92893 6.2496C3.26039 6.2496 3.57827 6.38124 3.81268 6.61558L10.0002 12.8031L16.1877 6.61558C16.4234 6.38788 16.7392 6.26189 17.0669 6.26474C17.3947 6.26758 17.7082 6.39905 17.94 6.63081C18.1717 6.86257 18.3032 7.17608 18.306 7.50383C18.3089 7.83157 18.1829 8.14733 17.9552 8.38308L10.8839 15.4543C10.6495 15.6887 10.3316 15.8203 10.0002 15.8203C9.66873 15.8203 9.35084 15.6887 9.11643 15.4543L2.04518 8.38308C1.81084 8.14867 1.6792 7.83078 1.6792 7.49933C1.6792 7.16787 1.81084 6.84999 2.04518 6.61558Z" fill="#000066"/>
</svg>
